<svg xmlns="http://www.w3.org/2000/svg" width="182" height="60"><g fill="#61DAFB"><path d="M75.671 49.538c.879-.12 1.504.144 1.9.608.67.78.693 2.13.201 3.173-1.17 2.478-3.352 4.784-8.24 5.684-4.038.798-8.89-2.11-11.513-5.295-2.116-2.57-5.449-6.955-7.936-10.227-1.886-2.482-3.287-4.324-3.302-4.251-1.518 7.19-1.84 12.039-2.05 15.223-.208 3.126-.309 4.646-1.331 5.198-1.61.869-8.85.47-9.204-5.364-.397-6.319 5.037-24.022 8.658-35.82.93-3.026 1.74-5.665 2.3-7.622-.138.06-.331.15-.553.25a43.39 43.39 0 01-1.722.76c-3.008 1.197-7.203-6.044-.954-8.198 22.911-7.893 31.024-1.984 31.627 7.981.282 4.655-1.074 8.628-3.35 11.922l-.064.09a22.597 22.597 0 01-2.09 2.556c-2.158 2.427-8.292 7.014-14.06 8.558 0 0 11.458 12.68 14.318 14.476 2.46 1.55 5.595.81 7.365.298zM63.102 12.74c-.228-3.772-2.653-5.552-7.578-4.466-3.09 8.02-5.747 16.274-7.196 21.424C57.081 28.606 63.49 19.11 63.102 12.74zm104.442 1.456c1.81-1.746 4.458-3.12 8.311-2.103 3.267.858 6.068 4.63 5.883 8.205-.343 6.619-4.41 8.546-7.506 7.839-3.769-.86-4.701-3.165-4.68-6.15.005-.778.288-2.42 1.198-3.214-2.356.862-4.883 4.066-5.898 7.209-1.787 5.536-2.865 13.812-2.334 19.926.322 3.714-9.695 2.735-9.401-1.5.201-2.905 1.157-14.416 3.163-21.995 1.138-4.302 2.267-7.901 3.264-10.408 1.406-3.539 2.347-3.519 3.59-3.48 2.281.073 4.075 3.049 4.41 5.671zM8.785 13.855c-1.144.181-3.369 1.4-2.962 3.822.28 1.666 1.127 3.134 2.384 4.155 1.06.858 2.342 1.323 3.266 1.183.904-.14 1.723-.564 2.305-1.202.81-.887 1.08-2.068.736-3.25-.455-1.567-2.752-5.196-5.73-4.708zM.66 28.719c-1.49-1.945-.12-3.939.794-4.573 2.37-1.667 6.077.545 7.208 1.724.853.89 1.172 2.033.88 3.146-.21.8-.725 1.512-1.449 2.01-.74.508-2.077.637-3.405.328-1.576-.367-3.002-1.296-4.027-2.635zm20.03-18.106c1.118-.23 3.642.151 4.242 2.602.412 1.686.228 3.383-.513 4.798-.625 1.191-1.611 2.084-2.512 2.274a3.928 3.928 0 01-2.591-.334c-1.098-.561-1.817-1.592-1.978-2.84-.213-1.653.432-5.92 3.351-6.5zm14.484 7.73c.028-2.497-2.4-3.406-3.578-3.424-3.067-.062-4.803 3.927-5.013 5.57-.158 1.241.297 2.391 1.251 3.169.686.558 1.576.868 2.506.877.95.01 2.165-.643 3.094-1.662 1.103-1.21 1.721-2.81 1.74-4.53zm-3.716 22.128c1.516-1.293 1.918-3.32 1.779-5.24-.598-8.219-13.232-12.403-16.133-12.478-2.822 2.145-8.53 11.768-5.791 18.933.693 1.816 2.915 3.358 4.941 3.582 2.294.252 3.77-1.213 5.249-2.68l.13-.13a4.04 4.04 0 011.716-.999 4.207 4.207 0 012.01-.127c2.164.395 4.332.646 6.1-.86z"></path><path d="M85.395 8.63c-9.31 1.255-13.144 18.252-13.194 25.008-.035 5.102 1.756 9.535 4.923 12.213 2.275 1.925 5.08 2.741 7.9 2.323 2.88-.431 6.325-3.669 8.775-8.248 2.907-5.437 4.209-12.224 3.652-19.192C96.64 10.61 88.967 8.123 85.395 8.63zm4.864 16.497c-.387 6.778-3.2 15.548-5.718 16.31-1.65.561-2.806-3.333-2.825-7.039-.045-8.71 4.015-17.799 6.419-17.645 1.982.126 2.332 4.74 2.124 8.374zm53.369 14.355c.459-.495.918-.99 1.504-1.359 2.745-1.733 4.552 1.557 3.132 3.912-2.516 4.173-5.487 6.34-10.785 6.054-4.829-.26-11.055-6.84-10.703-15.272.314-7.531 2.905-14.054 7.315-18.627 6.256-6.487 12.155-6.2 15.432-3.883 4.764 3.37 4.967 9.46 3.498 13.52-1.319 3.644-3.498 5.73-8.469 7.223-4.388 1.319-8.896 1.216-8.896 1.216s-.227 1.258-.242 2.742c-.025 2.588.644 6.151 3.979 6.424 2.255.184 3.245-.883 4.235-1.95zm-6.809-13.12c5.188.404 10.034-2.623 10.626-6.2.354-2.144-1.915-3.995-3.281-3.503-1.641.591-5.163 3.517-7.345 9.703zm-10.823-4.999c-1.986 15.16-11.188 24.996-17.888 26.703-1.681.428-11.07-5.674-6.513-35.178.746-4.837 3.73-4.7 6.938-3.127 3.14 1.54 3.97 4.619 3.462 7.363-.214 1.156-.532 2.483-.851 3.819-.467 1.95-.939 3.919-1.1 5.406-.991 9.128.851 13.125.851 13.125s6.01-5.09 7.668-19.75c.176-1.559.222-2.97.261-4.187.083-2.554.138-4.245 1.314-4.616 3.088-.974 6.755 3.59 5.858 10.442z"></path></g></svg>