<svg class="link-svg" width="30" height="30" viewBox="0 0 30 30" xmlns="http://www.w3.org/2000/svg">
        <path d="M15.5028 4.09597C15.1649 3.96801 14.7924 3.96801 14.4544 4.09597L8.13225 6.48974L9.57351 8.09047L14.9786 6.04393L25.427 10H16.7873C16.4415 9.4022 15.7952 9 15.0549 9C13.9503 9 13.0549 9.89543 13.0549 11C13.0549 12.1046 13.9503 13 15.0549 13C15.7952 13 16.4415 12.5978 16.7873 12H25.6037L15.5854 15.9287L5.05487 12.1114V12.1273L3 11L7.56649 8.85038L6.12523 7.24966L1.5001 9.5969C0.200901 10.0888 -0.30444 11.5226 1.00004 12L6.05487 14.265V24.6173L10.1271 24.0538C10.3033 24.0342 10.4816 24.0618 10.6436 24.1338L13.8365 25.5529C14.6122 25.8976 15.4976 25.8976 16.2733 25.5529L19.4661 24.1338C19.6282 24.0618 19.8064 24.0342 19.9827 24.0538L24.0549 24.6173V14.3713L28.0001 12.8241V18H30.0001L30 11C29.9969 10.4191 29.6733 9.83997 29.0314 9.5969L15.5028 4.09597ZM8.05487 22.3828V14.9971L15.0129 17.9098C15.3526 18.0341 15.7254 18.0298 16.0622 17.8977L16.5559 17.7041L22.0549 15.18V22.3828L20.2036 22.066C19.6748 22.0072 19.14 22.0901 18.6538 22.3062L15.461 23.7252C15.2024 23.8402 14.9073 23.8402 14.6487 23.7252L11.4559 22.3062C10.9698 22.0901 10.4349 22.0072 9.90619 22.066L8.05487 22.3828Z"></path>
        <path d="M30.0549 19V21H28.0549V19H30.0549Z"></path>
</svg>